<mxfile host="app.diagrams.net" modified="2021-10-25T22:39:09.095Z" agent="5.0 (Windows NT 10.0; Win64; x64) AppleWebKit/537.36 (KHTML, like Gecko) Chrome/94.0.4606.81 Safari/537.36 OPR/80.0.4170.63" etag="NfqsG-v24SD0YsqjgISo" version="15.5.9" type="github">
  <diagram id="SdRkyLkcUeXWYUllJMHb" name="Page-1">
    <mxGraphModel dx="1802" dy="522" grid="1" gridSize="10" guides="1" tooltips="1" connect="1" arrows="1" fold="1" page="1" pageScale="1" pageWidth="827" pageHeight="1169" math="0" shadow="0">
      <root>
        <mxCell id="0" />
        <mxCell id="1" parent="0" />
        <mxCell id="rJGfOImJorch9dARI20A-34" style="edgeStyle=none;rounded=0;orthogonalLoop=1;jettySize=auto;html=1;entryX=0;entryY=0.5;entryDx=0;entryDy=0;dashed=1;endArrow=open;endFill=0;" edge="1" parent="1" source="rJGfOImJorch9dARI20A-1" target="rJGfOImJorch9dARI20A-5">
          <mxGeometry relative="1" as="geometry" />
        </mxCell>
        <mxCell id="rJGfOImJorch9dARI20A-1" value="Registro flota vehicular" style="ellipse;whiteSpace=wrap;html=1;" vertex="1" parent="1">
          <mxGeometry x="230" y="130" width="140" height="70" as="geometry" />
        </mxCell>
        <mxCell id="rJGfOImJorch9dARI20A-22" style="edgeStyle=none;rounded=0;orthogonalLoop=1;jettySize=auto;html=1;entryX=0;entryY=0.5;entryDx=0;entryDy=0;" edge="1" parent="1" source="rJGfOImJorch9dARI20A-2" target="rJGfOImJorch9dARI20A-1">
          <mxGeometry relative="1" as="geometry" />
        </mxCell>
        <mxCell id="rJGfOImJorch9dARI20A-23" style="edgeStyle=none;rounded=0;orthogonalLoop=1;jettySize=auto;html=1;entryX=0;entryY=0.5;entryDx=0;entryDy=0;" edge="1" parent="1" source="rJGfOImJorch9dARI20A-2" target="rJGfOImJorch9dARI20A-9">
          <mxGeometry relative="1" as="geometry" />
        </mxCell>
        <mxCell id="rJGfOImJorch9dARI20A-29" style="edgeStyle=none;rounded=0;orthogonalLoop=1;jettySize=auto;html=1;entryX=0;entryY=0.5;entryDx=0;entryDy=0;" edge="1" parent="1" source="rJGfOImJorch9dARI20A-2" target="rJGfOImJorch9dARI20A-4">
          <mxGeometry relative="1" as="geometry" />
        </mxCell>
        <mxCell id="rJGfOImJorch9dARI20A-32" style="edgeStyle=none;rounded=0;orthogonalLoop=1;jettySize=auto;html=1;entryX=0;entryY=0.5;entryDx=0;entryDy=0;" edge="1" parent="1" source="rJGfOImJorch9dARI20A-2" target="rJGfOImJorch9dARI20A-6">
          <mxGeometry relative="1" as="geometry" />
        </mxCell>
        <mxCell id="rJGfOImJorch9dARI20A-45" style="edgeStyle=none;rounded=0;orthogonalLoop=1;jettySize=auto;html=1;entryX=0;entryY=0.5;entryDx=0;entryDy=0;endArrow=classic;endFill=1;" edge="1" parent="1" source="rJGfOImJorch9dARI20A-2" target="rJGfOImJorch9dARI20A-10">
          <mxGeometry relative="1" as="geometry" />
        </mxCell>
        <mxCell id="rJGfOImJorch9dARI20A-2" value="Encargado de Logistica" style="shape=umlActor;verticalLabelPosition=bottom;verticalAlign=top;html=1;" vertex="1" parent="1">
          <mxGeometry x="-30" y="120" width="30" height="60" as="geometry" />
        </mxCell>
        <mxCell id="rJGfOImJorch9dARI20A-36" style="edgeStyle=none;rounded=0;orthogonalLoop=1;jettySize=auto;html=1;entryX=0;entryY=0.5;entryDx=0;entryDy=0;dashed=1;endArrow=open;endFill=0;" edge="1" parent="1" source="rJGfOImJorch9dARI20A-3" target="rJGfOImJorch9dARI20A-5">
          <mxGeometry relative="1" as="geometry" />
        </mxCell>
        <mxCell id="rJGfOImJorch9dARI20A-3" value="Registro personal policial" style="ellipse;whiteSpace=wrap;html=1;" vertex="1" parent="1">
          <mxGeometry x="230" y="220" width="140" height="70" as="geometry" />
        </mxCell>
        <mxCell id="rJGfOImJorch9dARI20A-4" value="Gestión de dependencia" style="ellipse;whiteSpace=wrap;html=1;" vertex="1" parent="1">
          <mxGeometry x="220" y="410" width="140" height="70" as="geometry" />
        </mxCell>
        <mxCell id="rJGfOImJorch9dARI20A-39" style="edgeStyle=none;rounded=0;orthogonalLoop=1;jettySize=auto;html=1;entryX=0.5;entryY=0;entryDx=0;entryDy=0;dashed=1;endArrow=open;endFill=0;" edge="1" parent="1" source="rJGfOImJorch9dARI20A-5" target="rJGfOImJorch9dARI20A-8">
          <mxGeometry relative="1" as="geometry" />
        </mxCell>
        <mxCell id="rJGfOImJorch9dARI20A-5" value="Generar reporte" style="ellipse;whiteSpace=wrap;html=1;" vertex="1" parent="1">
          <mxGeometry x="540" y="155" width="140" height="70" as="geometry" />
        </mxCell>
        <mxCell id="rJGfOImJorch9dARI20A-6" value="Crear Orden de Trabajo" style="ellipse;whiteSpace=wrap;html=1;" vertex="1" parent="1">
          <mxGeometry x="220" y="515" width="140" height="70" as="geometry" />
        </mxCell>
        <mxCell id="rJGfOImJorch9dARI20A-8" value="Visualizar Historial de Reportes" style="ellipse;whiteSpace=wrap;html=1;" vertex="1" parent="1">
          <mxGeometry x="540" y="320" width="140" height="70" as="geometry" />
        </mxCell>
        <mxCell id="rJGfOImJorch9dARI20A-9" value="Login&amp;nbsp;" style="ellipse;whiteSpace=wrap;html=1;" vertex="1" parent="1">
          <mxGeometry x="344" y="20" width="140" height="70" as="geometry" />
        </mxCell>
        <mxCell id="rJGfOImJorch9dARI20A-10" value="Vinculación de recurso" style="ellipse;whiteSpace=wrap;html=1;" vertex="1" parent="1">
          <mxGeometry x="230" y="320" width="140" height="70" as="geometry" />
        </mxCell>
        <mxCell id="rJGfOImJorch9dARI20A-25" style="edgeStyle=none;rounded=0;orthogonalLoop=1;jettySize=auto;html=1;entryX=0;entryY=0.5;entryDx=0;entryDy=0;" edge="1" parent="1" source="rJGfOImJorch9dARI20A-13" target="rJGfOImJorch9dARI20A-9">
          <mxGeometry relative="1" as="geometry" />
        </mxCell>
        <mxCell id="rJGfOImJorch9dARI20A-28" style="edgeStyle=none;rounded=0;orthogonalLoop=1;jettySize=auto;html=1;entryX=-0.025;entryY=0.405;entryDx=0;entryDy=0;entryPerimeter=0;" edge="1" parent="1" source="rJGfOImJorch9dARI20A-13" target="rJGfOImJorch9dARI20A-3">
          <mxGeometry relative="1" as="geometry" />
        </mxCell>
        <mxCell id="rJGfOImJorch9dARI20A-33" style="edgeStyle=none;rounded=0;orthogonalLoop=1;jettySize=auto;html=1;entryX=0;entryY=0.5;entryDx=0;entryDy=0;" edge="1" parent="1" source="rJGfOImJorch9dARI20A-13" target="rJGfOImJorch9dARI20A-6">
          <mxGeometry relative="1" as="geometry" />
        </mxCell>
        <mxCell id="rJGfOImJorch9dARI20A-13" value="Encargado auxiliar" style="shape=umlActor;verticalLabelPosition=bottom;verticalAlign=top;html=1;" vertex="1" parent="1">
          <mxGeometry x="-30" y="320" width="30" height="60" as="geometry" />
        </mxCell>
        <mxCell id="rJGfOImJorch9dARI20A-26" style="edgeStyle=none;rounded=0;orthogonalLoop=1;jettySize=auto;html=1;entryX=1;entryY=0.5;entryDx=0;entryDy=0;" edge="1" parent="1" source="rJGfOImJorch9dARI20A-14" target="rJGfOImJorch9dARI20A-9">
          <mxGeometry relative="1" as="geometry" />
        </mxCell>
        <mxCell id="rJGfOImJorch9dARI20A-27" style="edgeStyle=none;rounded=0;orthogonalLoop=1;jettySize=auto;html=1;entryX=1;entryY=0.5;entryDx=0;entryDy=0;" edge="1" parent="1" source="rJGfOImJorch9dARI20A-14" target="rJGfOImJorch9dARI20A-5">
          <mxGeometry relative="1" as="geometry" />
        </mxCell>
        <mxCell id="rJGfOImJorch9dARI20A-30" style="edgeStyle=none;rounded=0;orthogonalLoop=1;jettySize=auto;html=1;entryX=1;entryY=0.5;entryDx=0;entryDy=0;" edge="1" parent="1" source="rJGfOImJorch9dARI20A-14" target="rJGfOImJorch9dARI20A-8">
          <mxGeometry relative="1" as="geometry" />
        </mxCell>
        <mxCell id="rJGfOImJorch9dARI20A-14" value="Alta Gerencia" style="shape=umlActor;verticalLabelPosition=bottom;verticalAlign=top;html=1;" vertex="1" parent="1">
          <mxGeometry x="800" y="80" width="30" height="60" as="geometry" />
        </mxCell>
        <mxCell id="rJGfOImJorch9dARI20A-31" style="edgeStyle=none;rounded=0;orthogonalLoop=1;jettySize=auto;html=1;entryX=1;entryY=0.5;entryDx=0;entryDy=0;" edge="1" parent="1" source="rJGfOImJorch9dARI20A-15" target="rJGfOImJorch9dARI20A-5">
          <mxGeometry relative="1" as="geometry" />
        </mxCell>
        <mxCell id="rJGfOImJorch9dARI20A-15" value="Responsable del vehículo" style="shape=umlActor;verticalLabelPosition=bottom;verticalAlign=top;html=1;" vertex="1" parent="1">
          <mxGeometry x="730" y="380" width="30" height="60" as="geometry" />
        </mxCell>
        <mxCell id="rJGfOImJorch9dARI20A-35" value="&amp;lt;&amp;lt;include&amp;gt;&amp;gt;" style="text;html=1;align=center;verticalAlign=middle;resizable=0;points=[];autosize=1;strokeColor=none;fillColor=none;" vertex="1" parent="1">
          <mxGeometry x="460" y="155" width="80" height="20" as="geometry" />
        </mxCell>
        <mxCell id="rJGfOImJorch9dARI20A-38" value="&amp;lt;&amp;lt;include&amp;gt;&amp;gt;" style="text;html=1;align=center;verticalAlign=middle;resizable=0;points=[];autosize=1;strokeColor=none;fillColor=none;" vertex="1" parent="1">
          <mxGeometry x="470" y="230" width="80" height="20" as="geometry" />
        </mxCell>
        <mxCell id="rJGfOImJorch9dARI20A-40" value="&amp;lt;&amp;lt;include&amp;gt;&amp;gt;" style="text;html=1;align=center;verticalAlign=middle;resizable=0;points=[];autosize=1;strokeColor=none;fillColor=none;" vertex="1" parent="1">
          <mxGeometry x="530" y="270" width="80" height="20" as="geometry" />
        </mxCell>
      </root>
    </mxGraphModel>
  </diagram>
</mxfile>
